<svg width="40" height="40" viewBox="0 0 40 40" fill="none" xmlns="http://www.w3.org/2000/svg">
<rect width="40" height="40" rx="2" fill="#3DB887"/>
<path d="M23 20C23 19.456 22.864 18.96 22.592 18.512C22.32 18.048 21.952 17.68 21.488 17.408C21.04 17.136 20.544 17 20 17V15.008C20.912 15.008 21.744 15.232 22.496 15.68C23.264 16.128 23.872 16.736 24.32 17.504C24.768 18.256 24.992 19.088 24.992 20H23ZM27.008 20C27.008 18.736 26.688 17.56 26.048 16.472C25.424 15.416 24.584 14.576 23.528 13.952C22.44 13.312 21.264 12.992 20 12.992V11C21.632 11 23.144 11.408 24.536 12.224C25.896 13.024 26.976 14.096 27.776 15.44C28.592 16.848 29 18.368 29 20H27.008ZM27.992 23.504C28.264 23.504 28.496 23.6 28.688 23.792C28.896 23.984 29 24.216 29 24.488V27.992C29 28.264 28.896 28.496 28.688 28.688C28.496 28.896 28.264 29 27.992 29C25.688 29 23.48 28.552 21.368 27.656C19.336 26.808 17.536 25.6 15.968 24.032C14.4 22.464 13.192 20.664 12.344 18.632C11.448 16.52 11 14.312 11 12.008C11 11.736 11.096 11.504 11.288 11.312C11.496 11.104 11.736 11 12.008 11H15.512C15.784 11 16.016 11.104 16.208 11.312C16.4 11.504 16.496 11.736 16.496 12.008C16.496 13.192 16.688 14.376 17.072 15.56C17.136 15.736 17.144 15.92 17.096 16.112C17.048 16.288 16.96 16.448 16.832 16.592L14.624 18.8C15.344 20.208 16.264 21.48 17.384 22.616C18.52 23.736 19.792 24.656 21.2 25.376L23.408 23.168C23.552 23.04 23.712 22.952 23.888 22.904C24.08 22.856 24.264 22.864 24.44 22.928C25.624 23.312 26.808 23.504 27.992 23.504Z" fill="white"/>
</svg>
